#!OML:ASF F:\VICON\USERDATA\INSTALL\rory3\rory3.ASF
:FULLY-SPECIFIED
:DEGREES
1541
root -1.05086 10.12 -5.32648 5.84865 1.15375 0.919374
lowerback 35.0623 0.0454406 -1.89293
upperback 5.46541 -0.671252 -0.330038
thorax -11.6816 -0.23669 0.926767
lowerneck -17.0864 -0.477524 -5.47006
upperneck -6.2737 0.37105 6.69229
head 0.908596 0.453358 3.2054
rclavicle 1.49089e-015 -1.19271e-015
rhumerus -2.27766 -14.8482 -47.5275
rradius 89.834
rwrist -33.7294
rhand -29.5981 7.53054
rfingers 7.12502
rthumb -2.92932 -22.4291
lclavicle 1.49089e-015 -1.19271e-015
lhumerus 0.223768 -1.24701 46.6744
lradius 85.1177
lwrist 10.1259
lhand -38.0542 8.27442
lfingers 7.12502
lthumb -11.0916 37.9613
rfemur -92.2512 -32.2429 13.6997
rtibia 126.517
rfoot -34.2609 -4.21203
rtoes -13.7264
lfemur -90.0626 22.3795 -20.342
ltibia 128.293
lfoot -38.7417 9.66667
ltoes -12.94
1542
root -1.05557 10.007 -5.32654 5.71292 1.2327 0.804035
lowerback 35.1162 0.0626116 -1.84801
upperback 5.53269 -0.62505 -0.27218
thorax -11.6271 -0.217889 0.945837
lowerneck -16.8563 -0.46727 -5.60462
upperneck -6.52594 0.410308 6.76854
head 0.78339 0.473392 3.25433
rclavicle 8.94531e-016 3.18055e-015
rhumerus -2.11579 -14.8879 -47.6464
rradius 89.8188
rwrist -33.711
rhand -30.1797 7.91317
rfingers 7.12502
rthumb -3.49104 -22.038
lclavicle 8.94531e-016 3.18055e-015
lhumerus 0.450825 -1.24327 46.6583
lradius 85.0282
lwrist 10.146
lhand -37.9966 8.17495
lfingers 7.12502
lthumb -11.036 37.8648
rfemur -93.1311 -33.0003 14.1749
rtibia 127.369
rfoot -34.2473 -4.31337
rtoes -13.9704
lfemur -90.8367 23.0814 -20.4158
ltibia 129.213
lfoot -38.8863 9.05816
ltoes -12.2416
1543
root -1.06025 9.89791 -5.32671 5.56577 1.29145 0.716991
lowerback 35.1958 0.0786664 -1.81374
upperback 5.58375 -0.589533 -0.246836
thorax -11.6006 -0.203336 0.940236
lowerneck -16.7989 -0.487622 -5.68497
upperneck -6.5345 0.395702 6.82527
head 0.772642 0.468096 3.28801
rclavicle -1.98785e-016 -5.96354e-015
rhumerus -2.0346 -14.8699 -47.7482
rradius 89.826
rwrist -33.8446
rhand -30.049 8.02603
rfingers 7.12502
rthumb -3.36481 -21.9272
lclavicle -1.98785e-016 -5.96354e-015
lhumerus 0.589885 -1.26515 46.6298
lradius 84.9889
lwrist 10.1115
lhand -37.8504 8.08514
lfingers 7.12502
lthumb -10.895 37.7825
rfemur -94.0049 -33.7238 14.5909
rtibia 128.204
rfoot -34.2093 -4.34609
rtoes -14.1385
lfemur -91.582 23.7245 -20.5331
ltibia 130.067
lfoot -38.978 8.72672
ltoes -11.9028
1544
root -1.06567 9.79446 -5.32853 5.39895 1.37815 0.685555
lowerback 35.4776 0.0843382 -1.80259
upperback 5.47405 -0.58733 -0.260579
thorax -11.7141 -0.201064 0.912295
lowerneck -16.7314 -0.51369 -5.62939
upperneck -6.43344 0.343701 6.8198
head 0.798465 0.439806 3.27236
rclavicle 4.27387e-015 9.93923e-015
rhumerus -2.08121 -14.7777 -47.8958
rradius 89.8673
rwrist -33.9478
rhand -29.5121 7.65029
rfingers 7.12502
rthumb -2.84627 -22.3105
lclavicle 4.27387e-015 9.93923e-015
lhumerus 0.648869 -1.37449 46.5806
lradius 84.9596
lwrist 10.2025
lhand -37.9139 7.98454
lfingers 7.12502
lthumb -10.9562 37.6787
rfemur -94.7844 -34.567 14.9047
rtibia 129.025
rfoot -34.3169 -4.02277
rtoes -13.6719
lfemur -92.2881 24.2435 -20.711
ltibia 130.838
lfoot -39.062 8.59778
ltoes -11.7027
1545
root -1.07257 9.69514 -5.33379 5.28456 1.46915 0.596256
lowerback 35.7088 0.0863559 -1.78333
upperback 5.40143 -0.579709 -0.235617
thorax -11.8846 -0.195674 0.926953
lowerneck -16.5956 -0.516384 -5.61359
upperneck -6.45056 0.332055 6.82002
head 0.770427 0.431345 3.26659
rclavicle -9.93923e-017 8.54774e-015
rhumerus -2.06127 -14.6577 -48.0742
rradius 89.8596
rwrist -33.9944
rhand -29.577 7.63124
rfingers 7.12502
rthumb -2.90898 -22.3287
lclavicle -9.93923e-017 8.54774e-015
lhumerus 0.642114 -1.4725 46.525
lradius 84.9255
lwrist 10.2908
lhand -38.1758 8.10273
lfingers 7.12502
lthumb -11.2089 37.7833
rfemur -95.642 -35.3586 15.3592
rtibia 129.829
rfoot -34.4714 -3.59301
rtoes -12.6542
lfemur -93.1279 24.7824 -20.8426
ltibia 131.605
lfoot -39.1953 8.18198
ltoes -10.6863
1546
root -1.07703 9.59532 -5.33749 5.16307 1.53886 0.627821
lowerback 35.8809 0.0969068 -1.85735
upperback 5.40291 -0.595723 -0.224763
thorax -11.9464 -0.199249 0.984797
lowerneck -16.616 -0.526875 -5.69209
upperneck -6.43089 0.332014 6.83967
head 0.781028 0.433775 3.28916
rclavicle 1.09332e-015 -5.56597e-015
rhumerus -1.89185 -14.6037 -48.2816
rradius 89.8178
rwrist -33.956
rhand -29.6449 7.78258
rfingers 7.12502
rthumb -2.97448 -22.1764
lclavicle 1.09332e-015 -5.56597e-015
lhumerus 0.712099 -1.42056 46.5017
lradius 84.8663
lwrist 10.2912
lhand -38.2796 8.31451
lfingers 7.12502
lthumb -11.309 37.9896
rfemur -96.5931 -36.2591 15.731
rtibia 130.634
rfoot -34.5382 -3.21483
rtoes -12.6235
lfemur -93.9362 25.2049 -21.1016
ltibia 132.353
lfoot -39.2103 8.11556
ltoes -10.3764
1547
root -1.07941 9.49487 -5.3371 5.04119 1.59492 0.805715
lowerback 35.9384 0.116877 -2.02977
upperback 5.47274 -0.642095 -0.276723
thorax -11.8852 -0.215159 1.03858
lowerneck -16.7541 -0.549616 -5.72138
upperneck -6.29725 0.30747 6.85756
head 0.851398 0.425055 3.30306
rclavicle 1.59028e-015 -1.98785e-016
rhumerus -1.69234 -14.5735 -48.5363
rradius 89.8116
rwrist -33.8701
rhand -29.7213 7.5052
rfingers 7.12502
rthumb -3.04831 -22.4528
lclavicle 1.59028e-015 -1.98785e-016
lhumerus 0.862465 -1.34219 46.444
lradius 84.7509
lwrist 10.2966
lhand -38.4316 8.33718
lfingers 7.12502
lthumb -11.4555 38.0042
rfemur -97.6026 -37.2736 15.9646
rtibia 131.423
rfoot -34.4558 -3.03568
rtoes -13.8709
lfemur -94.6171 25.5635 -21.5044
ltibia 133.08
lfoot -39.2221 8.10703
ltoes -10.4318
1548
root -1.08593 9.39633 -5.34077 4.90009 1.6283 0.858653
lowerback 36.0943 0.148987 -2.15207
upperback 5.50432 -0.653663 -0.297334
thorax -11.9056 -0.215992 1.08594
lowerneck -16.68 -0.549608 -5.71698
upperneck -6.39334 0.307596 6.85747
head 0.806485 0.423664 3.3001
rclavicle 4.27387e-015 -4.37326e-015
rhumerus -1.52075 -14.4762 -48.7847
rradius 89.7438
rwrist -33.8633
rhand -29.6494 7.27428
rfingers 7.12502
rthumb -2.97892 -22.6847
lclavicle 4.27387e-015 -4.37326e-015
lhumerus 0.879786 -1.26528 46.3905
lradius 84.7403
lwrist 10.348
lhand -38.5333 8.4385
lfingers 7.12502
lthumb -11.5536 38.1001
rfemur -98.6186 -38.1073 16.3778
rtibia 132.18
rfoot -34.3684 -2.80708
rtoes -14.2856
lfemur -95.346 26.1735 -21.8094
ltibia 133.802
lfoot -39.1797 7.88825
ltoes -10.2371
1549
root -1.09338 9.30342 -5.34467 4.74977 1.62565 0.761401
lowerback 36.3362 0.185723 -2.18236
upperback 5.49288 -0.620986 -0.264223
thorax -12.0092 -0.198716 1.12493
lowerneck -16.5865 -0.535914 -5.64136
upperneck -6.52597 0.313672 6.74706
head 0.744286 0.421008 3.24435
rclavicle 5.66536e-015 4.37326e-015
rhumerus -1.37313 -14.2906 -48.9644
rradius 89.6176
rwrist -33.9848
rhand -29.4271 7.31461
rfingers 7.12502
rthumb -2.76417 -22.6472
lclavicle 5.66536e-015 4.37326e-015
lhumerus 0.821293 -1.20906 46.3601
lradius 84.7281
lwrist 10.3738
lhand -38.5144 8.34186
lfingers 7.12502
lthumb -11.5354 38.0044
rfemur -99.5317 -38.7336 16.9449
rtibia 132.879
rfoot -34.4173 -2.54973
rtoes -13.7286
lfemur -96.1086 26.9923 -21.9825
ltibia 134.497
lfoot -39.0606 7.72535
ltoes -10.0579
1550
root -1.0965 9.21759 -5.34419 4.60719 1.65863 0.780026
lowerback 36.5036 0.205149 -2.21802
upperback 5.5145 -0.61281 -0.256943
thorax -12.0464 -0.193243 1.14844
lowerneck -16.697 -0.558716 -5.56639
upperneck -6.42164 0.270013 6.58597
head 0.799049 0.396057 3.17345
rclavicle -7.35503e-015 -5.96354e-016
rhumerus -1.2611 -14.1541 -49.1104
rradius 89.5332
rwrist -34.0863
rhand -29.3262 7.28662
rfingers 7.12502
rthumb -2.66679 -22.6765
lclavicle -7.35503e-015 -5.96354e-016
lhumerus 0.892402 -1.16829 46.4078
lradius 84.5744
lwrist 10.4112
lhand -38.4757 8.04944
lfingers 7.12502
lthumb -11.4981 37.7141
rfemur -100.33 -39.4973 17.3039
rtibia 133.518
rfoot -34.4673 -2.40354
rtoes -13.7404
lfemur -96.7012 27.5613 -22.2036
ltibia 135.158
lfoot -39.1252 7.43001
ltoes -9.32694
1551
root -1.10099 9.13422 -5.34572 4.49627 1.71505 0.837798
lowerback 36.6792 0.204774 -2.28192
upperback 5.51024 -0.642016 -0.257866
thorax -12.1144 -0.202857 1.1937
lowerneck -16.7773 -0.543623 -5.64436
upperneck -6.27935 0.301828 6.57468
head 0.858606 0.414917 3.18902
rclavicle -1.68967e-015 -7.95139e-016
rhumerus -1.12866 -13.9223 -49.2598
rradius 89.4582
rwrist -34.0985
rhand -29.2429 6.97017
rfingers 7.12502
rthumb -2.58632 -22.9939
lclavicle -1.68967e-015 -7.95139e-016
lhumerus 0.934993 -1.11454 46.4635
lradius 84.4099
lwrist 10.4982
lhand -38.5729 8.03671
lfingers 7.12502
lthumb -11.5918 37.6961
rfemur -101.196 -40.2478 17.6611
rtibia 134.111
rfoot -34.3507 -2.44222
rtoes -14.1669
lfemur -97.3284 28.0223 -22.472
ltibia 135.763
lfoot -39.1259 6.99951
ltoes -8.77234
1552
root -1.10703 9.05434 -5.34792 4.40677 1.69985 0.693626
lowerback 36.8411 0.214322 -2.2298
upperback 5.48451 -0.607781 -0.206501
thorax -12.2051 -0.187862 1.20804
lowerneck -16.7139 -0.494348 -5.80189
upperneck -6.30622 0.39414 6.64679
head 0.833979 0.465127 3.24899
rclavicle -6.95746e-016 5.56597e-015
rhumerus -1.02908 -13.6004 -49.3686
rradius 89.3449
rwrist -34.0824
rhand -29.2904 7.06365
rfingers 7.12502
rthumb -2.63216 -22.8999
lclavicle -6.95746e-016 5.56597e-015
lhumerus 0.846189 -1.04155 46.5363
lradius 84.3757
lwrist 10.5958
lhand -38.6358 8.47051
lfingers 7.12502
lthumb -11.6524 38.1265
rfemur -102.048 -40.7586 18.2449
rtibia 134.704
rfoot -34.372 -2.3266
rtoes -14.1516
lfemur -98.1539 28.6525 -22.6924
ltibia 136.314
lfoot -38.8583 7.29979
ltoes -10.0851
1553
root -1.1097 8.98458 -5.34813 4.22971 1.67379 0.749338
lowerback 37.0664 0.253264 -2.32417
upperback 5.51753 -0.602324 -0.215838
thorax -12.2488 -0.1817 1.24567
lowerneck -16.7375 -0.483814 -5.95255
upperneck -6.34607 0.438191 6.75179
head 0.823114 0.493095 3.3176
rclavicle 1.05356e-014 6.16232e-015
rhumerus -0.915456 -13.3605 -49.4951
rradius 89.2386
rwrist -33.9843
rhand -29.3994 7.177
rfingers 7.12502
rthumb -2.73747 -22.7852
lclavicle 1.05356e-014 6.16232e-015
lhumerus 0.751144 -0.923825 46.6138
lradius 84.3715
lwrist 10.7015
lhand -38.5878 8.54927
lfingers 7.12502
lthumb -11.6062 38.2079
rfemur -102.698 -41.4048 18.4677
rtibia 135.243
rfoot -34.4663 -1.96068
rtoes -14.2025
lfemur -98.6401 29.0414 -22.9964
ltibia 136.805
lfoot -38.7511 7.9839
ltoes -11.7337
